<?xml version="1.0" encoding="utf-8"?>
<!-- Generator: Adobe Illustrator 24.1.0, SVG Export Plug-In . SVG Version: 6.00 Build 0)  -->
<svg version="1.1" xmlns="http://www.w3.org/2000/svg" xmlns:xlink="http://www.w3.org/1999/xlink" x="0px" y="0px"
	 viewBox="0 0 455 267" style="enable-background:new 0 0 455 267;" xml:space="preserve">
<style type="text/css">
	.st0{fill:#CC8E1F;}
	.st1{fill:#FFFFFF;}
	.st2{display:none;}
	.st3{display:inline;}
	.st4{font-family:'MonotypeCorsiva';}
	.st5{font-size:36px;}
	.st6{letter-spacing:1.09;}
</style>
<g id="Layer_1">
</g>
<g id="inner">
	<g>
		<path class="st0" d="M214.33,157.63c0,0-116.24-39.61-112.81-44.53s21.53-8.15,1.12-13.85S26.15,69.09,20.56,57.87
			s-8.12-49.55,37.3-32.51s174.81,130.44,177.2,135.76C237.44,166.44,214.33,157.63,214.33,157.63z"/>
		<path class="st1" d="M235.3,163c0,0-174.35-98.47-180.05-109.32S235.3,163,235.3,163z"/>
		<path class="st0" d="M339.55,226.85c0,0-122.55-66.68-125.53-75.85C211.04,141.82,339.55,226.85,339.55,226.85z"/>
		<path class="st0" d="M236.61,155.34c0,0,117.55-35.52,114.29-40.56c-3.26-5.04-21.23-8.9-0.64-13.88
			c20.6-4.98,77.5-27.49,83.47-38.5s9.84-49.24-36.14-33.79S218.34,152.86,215.77,158.1S236.61,155.34,236.61,155.34z"/>
		<path class="st1" d="M209.46,163.97c0,0,177.68-92.33,183.76-102.97C399.29,50.36,209.46,163.97,209.46,163.97z"/>
		<path class="st0" d="M103.05,224.14c0,0,124.81-62.36,128.1-71.43C234.44,143.65,103.05,224.14,103.05,224.14z"/>
	</g>
	<g>
		<polygon class="st0" points="200.5,193.5 251.5,193.5 246.5,203.5 207.5,203.5 		"/>
		<polygon class="st0" points="205.5,206.5 187.5,239.5 265.5,239.5 248.5,206.5 		"/>
		<rect x="215.57" y="198.5" class="st0" width="24.2" height="8.35"/>
	</g>
	<rect x="187.5" y="242.5" class="st0" width="78" height="4"/>
</g>
<g id="outer">
</g>
<g id="Layer_4" class="st2">
	<g class="st3">
		<text transform="matrix(0.918 0 0 1 113.563 245.1416)" class="st4 st5 st6">Elisabeth Schalij</text>
	</g>
	<g class="st3">
		<g>
			<path d="M159.54,289.14v-0.67c1.43-0.19,1.61-0.43,1.3-1.34c-0.29-0.94-0.73-2.14-1.19-3.65h-4.76c-0.35,1.08-0.68,2.02-0.99,3
				c-0.48,1.56-0.18,1.75,1.63,1.99v0.67h-5.09v-0.67c1.39-0.19,1.74-0.36,2.51-2.52l4.56-12.6l0.71-0.14
				c1.39,4.1,2.91,8.64,4.3,12.79c0.71,2.09,0.9,2.28,2.47,2.47v0.67H159.54z M157.33,276.35c-0.71,2.06-1.45,4.25-2.12,6.14h4.12
				L157.33,276.35z"/>
			<path d="M177.03,288.59c-1.06,0.17-2.25,0.48-3.37,0.84c0-0.38,0-1.25,0-1.85c-1.19,1.08-2.16,1.85-3.37,1.85
				c-1.48,0-2.75-0.98-2.75-3.6v-4.66c0-1.3-0.18-1.44-0.73-1.56l-0.62-0.12v-0.62c0.95-0.05,2.4-0.29,3.15-0.43
				c-0.07,0.77-0.07,1.92-0.07,3.5v3.26c0,2.11,1.01,2.71,2,2.71c0.82,0,1.63-0.38,2.38-1.15v-5.59c0-1.3-0.26-1.46-1.01-1.58
				l-0.71-0.1v-0.62c1.41-0.07,2.95-0.34,3.46-0.43v8.04c0,1.2,0.18,1.37,1.01,1.42l0.62,0.02V288.59z"/>
			<path d="M183.55,289.12c-0.37,0.22-0.73,0.31-0.95,0.31c-1.41,0-2.16-0.94-2.16-2.86v-6.98h-1.52l-0.09-0.29l0.59-0.7h1.01v-2.02
				c0.42-0.48,1.06-1.1,1.48-1.58l0.33,0.05c-0.04,1.01-0.07,2.4-0.07,3.55h2.51c0.2,0.24,0.13,0.77-0.13,0.98h-2.38v6.14
				c0,1.94,0.71,2.3,1.28,2.3c0.53,0,1.04-0.22,1.34-0.38l0.2,0.62L183.55,289.12z"/>
			<path d="M193.09,289.14v-0.67c1.28-0.14,1.45-0.26,1.45-1.85v-3.94c0-1.99-0.71-3-2.18-2.98c-0.84,0-1.72,0.46-2.34,1.25v5.66
				c0,1.56,0.18,1.7,1.5,1.85v0.67h-4.8v-0.67c1.28-0.12,1.56-0.24,1.56-1.85v-11.57c0-1.27-0.07-1.58-1.54-1.73v-0.62
				c1.17-0.12,2.49-0.48,3.28-0.82c0,0.94,0,1.99,0,2.98v5.21c0.79-0.86,2.01-1.75,3.19-1.75c1.81,0,3.06,1.22,3.06,4.1v4.22
				c0,1.58,0.18,1.7,1.45,1.82v0.67H193.09z"/>
			<path d="M205.1,278.32c2.75,0,4.8,2.28,4.8,5.38c0,3.89-2.64,5.74-4.8,5.74c-3.04,0-4.89-2.66-4.89-5.35
				C200.21,280.17,203,278.32,205.1,278.32z M204.83,279.13c-1.34,0-2.56,1.42-2.56,4.2c0,3.05,1.23,5.26,3.04,5.26
				c1.37,0,2.51-1.08,2.51-4.37C207.83,281.41,206.77,279.13,204.83,279.13z"/>
			<path d="M217.63,289.14h-5.07v-0.67c1.39-0.14,1.52-0.26,1.52-1.82v-4.99c0-1.58-0.09-1.66-1.37-1.82v-0.6
				c1.08-0.19,2.07-0.48,3.11-0.98c0,0.79,0,1.85,0,2.64c0.77-1.25,1.7-2.57,2.8-2.57c0.82,0,1.28,0.55,1.28,1.15
				c0,0.55-0.35,1.08-0.75,1.32c-0.22,0.14-0.4,0.12-0.57-0.05c-0.33-0.36-0.59-0.6-0.99-0.6c-0.46,0-1.28,0.74-1.76,1.97v4.51
				c0,1.58,0.11,1.7,1.81,1.85V289.14z"/>
			<path d="M229.57,295.14v-24H231v24H229.57z"/>
			<path d="M261.34,274.21c-1.54,0.24-1.76,0.43-2.36,2.4c-0.73,2.4-2.49,8.5-3.7,12.79h-0.75c-1.15-3.74-2.62-8.38-3.77-11.93
				c-1.28,4.13-2.58,8.23-3.72,11.93h-0.73c-1.1-4.13-2.36-8.62-3.55-12.82c-0.57-1.94-0.82-2.21-2.25-2.38v-0.67h5.44v0.67
				c-1.63,0.19-1.67,0.46-1.37,1.66c0.86,3.24,1.74,6.43,2.64,9.82c1.21-3.82,2.53-7.99,3.66-11.93h0.71
				c1.23,4.08,2.47,7.87,3.75,11.95c0.92-3.19,2.18-7.46,2.67-9.55c0.33-1.39,0.15-1.7-1.72-1.94v-0.67h5.05V274.21z"/>
			<path d="M267.84,289.14h-5.07v-0.67c1.39-0.14,1.52-0.26,1.52-1.82v-4.99c0-1.58-0.09-1.66-1.37-1.82v-0.6
				c1.08-0.19,2.07-0.48,3.11-0.98c0,0.79,0,1.85,0,2.64c0.77-1.25,1.7-2.57,2.8-2.57c0.82,0,1.28,0.55,1.28,1.15
				c0,0.55-0.35,1.08-0.75,1.32c-0.22,0.14-0.4,0.12-0.57-0.05c-0.33-0.36-0.59-0.6-0.99-0.6c-0.46,0-1.28,0.74-1.76,1.97v4.51
				c0,1.58,0.11,1.7,1.81,1.85V289.14z"/>
			<path d="M272.05,289.14v-0.67c1.39-0.14,1.54-0.26,1.54-1.9v-4.94c0-1.49-0.07-1.58-1.39-1.82v-0.58
				c1.15-0.22,2.18-0.53,3.13-0.96c0,1.01,0,2.02,0,3.02v5.28c0,1.63,0.15,1.75,1.59,1.9v0.67H272.05z M274.34,275.92
				c-0.62,0-1.17-0.6-1.17-1.27c0-0.77,0.55-1.32,1.19-1.32c0.62,0,1.12,0.55,1.12,1.32C275.49,275.32,274.98,275.92,274.34,275.92z
				"/>
			<path d="M283.46,289.12c-0.38,0.22-0.73,0.31-0.95,0.31c-1.41,0-2.16-0.94-2.16-2.86v-6.98h-1.52l-0.09-0.29l0.6-0.7h1.01v-2.02
				c0.42-0.48,1.06-1.1,1.48-1.58l0.33,0.05c-0.04,1.01-0.07,2.4-0.07,3.55h2.51c0.2,0.24,0.13,0.77-0.13,0.98h-2.38v6.14
				c0,1.94,0.71,2.3,1.28,2.3c0.53,0,1.04-0.22,1.34-0.38l0.2,0.62L283.46,289.12z"/>
			<path d="M295.03,287.1c-1.41,1.92-2.95,2.33-3.66,2.33c-2.69,0-4.32-2.4-4.32-5.16c0-1.63,0.53-3.14,1.43-4.2
				c0.93-1.13,2.14-1.75,3.28-1.75c1.92,0,3.37,1.8,3.37,3.72c-0.02,0.48-0.09,0.7-0.44,0.79c-0.44,0.1-3.26,0.31-5.88,0.41
				c-0.07,3.22,1.74,4.54,3.31,4.54c0.9,0,1.74-0.41,2.56-1.22L295.03,287.1z M291.24,279.23c-1.01,0-2,1.03-2.31,2.98
				c1.23,0,2.47,0,3.77-0.07c0.4,0,0.53-0.12,0.53-0.48C293.24,280.38,292.47,279.23,291.24,279.23z"/>
			<path d="M302.63,289.14h-5.07v-0.67c1.39-0.14,1.52-0.26,1.52-1.82v-4.99c0-1.58-0.09-1.66-1.37-1.82v-0.6
				c1.08-0.19,2.07-0.48,3.11-0.98c0,0.79,0,1.85,0,2.64c0.77-1.25,1.7-2.57,2.8-2.57c0.82,0,1.28,0.55,1.28,1.15
				c0,0.55-0.35,1.08-0.75,1.32c-0.22,0.14-0.4,0.12-0.57-0.05c-0.33-0.36-0.59-0.6-0.99-0.6c-0.46,0-1.28,0.74-1.76,1.97v4.51
				c0,1.58,0.11,1.7,1.81,1.85V289.14z"/>
		</g>
	</g>
	<rect x="103" y="258" class="st3" width="250" height="0.2"/>
</g>
<g id="Layer_5">
</g>
</svg>
